<svg xmlns="http://www.w3.org/2000/svg" width="136" height="23" viewBox="0 0 136 23">
    <g fill="none" fill-rule="evenodd">
        <path fill="#EE3124" d="M10.705 7.254V.5H.5v10.518C.5 16.813 5.216 21.5 11 21.5h10.5V11.277h-6.742c-2.247 0-4.053-1.809-4.053-4.023z"/>
        <g fill="#F78E1E">
            <path d="M14.15 5.112V.537h-3.075V7.4a3.52 3.52 0 0 0 3.525 3.525h6.863V7.85h-4.575a2.753 2.753 0 0 1-2.738-2.737z"/>
            <path d="M17.825 2.825V.537H14.75v4.575c0 1.2.975 2.138 2.138 2.138h4.574V4.175h-2.287c-.75 0-1.35-.6-1.35-1.35z"/>
            <path d="M18.425.537v2.288c0 .412.338.787.788.787H21.5V.537h-3.075z"/>
        </g>
        <g fill="#FFF">
            <path fill-rule="nonzero" d="M48.516 5.877c4.961 0 8.205 3.318 8.205 8.39 0 5.034-3.206 8.352-8.205 8.352-4.961 0-8.167-3.318-8.167-8.352 0-5.072 3.206-8.39 8.167-8.39zm0 13.424c2.977 0 3.854-2.555 3.854-5.072 0-2.555-.877-5.11-3.854-5.11-2.939 0-3.816 2.555-3.816 5.11 0 2.517.877 5.072 3.816 5.072zM57.866.538h4.35V8.28h.077c1.068-1.64 3.014-2.365 4.96-2.365 3.168 0 6.527 2.555 6.527 8.352 0 5.835-3.397 8.39-6.526 8.39-2.328 0-4.236-.725-5.19-2.44h-.077v2.02h-4.121V.538zm7.861 8.695c-2.557 0-3.702 2.44-3.702 5.11 0 2.632 1.145 5.072 3.702 5.072s3.702-2.44 3.702-5.072c0-2.707-1.107-5.11-3.702-5.11z"/>
            <path d="M74.924.538h4.35v21.7h-4.35z"/>
            <path fill-rule="nonzero" d="M80.801 11.254c.23-4.08 3.893-5.3 7.442-5.3 3.13 0 6.946.724 6.946 4.5v8.275c0 1.449.152 2.898.534 3.546h-4.389a6.759 6.759 0 0 1-.305-1.525c-1.374 1.45-3.396 1.983-5.305 1.983-3.014 0-5.38-1.487-5.38-4.767 0-3.585 2.67-4.462 5.38-4.805 2.672-.381 5.114-.305 5.114-2.097 0-1.87-1.297-2.136-2.824-2.136-1.64 0-2.71.686-2.862 2.403h-4.35v-.077zm9.923 3.204c-.725.648-2.252.686-3.626.915-1.335.267-2.557.724-2.557 2.326 0 1.64 1.26 2.021 2.672 2.021 3.396 0 3.51-2.707 3.51-3.66v-1.602z"/>
            <path d="M114.69 22.237h-4.465l-2.824-10.64h-.038l-2.71 10.64h-4.503l-5-15.864h4.58l2.9 10.792h.077l2.633-10.792h4.198l2.671 10.754h.077l2.9-10.754h4.465zM123.276 17.089c.038 1.907 1.603 2.67 3.32 2.67 1.26 0 2.824-.496 2.824-2.022 0-1.334-1.793-1.792-4.922-2.44-2.52-.534-5-1.45-5-4.233 0-4.043 3.473-5.11 6.87-5.11 3.434 0 6.64 1.182 6.945 5.071h-4.121c-.115-1.678-1.412-2.135-2.977-2.135-.992 0-2.404.19-2.404 1.487 0 1.564 2.442 1.792 4.923 2.365 2.518.572 4.999 1.487 4.999 4.461 0 4.195-3.587 5.53-7.213 5.53-3.663 0-7.25-1.373-7.403-5.606h4.16v-.038zM32.831 17.737c-1.03 0-1.87-.839-1.87-1.868V.539h-4.808v15.33a6.37 6.37 0 0 0 1.87 4.5c1.144 1.144 2.747 1.868 4.465 1.868h7.747v-4.5H32.83z"/>
        </g>
        <path fill="#FFF" fill-rule="nonzero" d="M134.868 5.632c.264.263.369.526.369.894 0 .369-.105.632-.369.895a1.154 1.154 0 0 1-.894.368c-.316 0-.632-.105-.895-.368a1.154 1.154 0 0 1-.368-.895c0-.315.105-.631.368-.894.263-.264.526-.369.895-.369.368 0 .684.105.894.369zm.21-.21c-.315-.317-.63-.422-1.052-.422-.368 0-.737.158-1.052.421-.316.316-.474.632-.474 1.105 0 .421.158.79.421 1.053.316.263.632.421 1.053.421.42 0 .737-.158 1.052-.421.316-.316.474-.632.474-1.053 0-.42-.158-.79-.421-1.105zm-.894.946c-.052.053-.158.053-.21.053h-.158v-.474h.105c.105 0 .21 0 .263.053.105.053.158.105.158.21l-.158.158zm-.42.369h.21c.052 0 .105 0 .158.052.052 0 .105.053.105.106 0 .052 0 .105.052.21v.21h.422v-.052-.052V7c0-.158-.053-.316-.158-.368-.053-.053-.158-.053-.21-.106.104 0 .21-.052.262-.105.053-.053.106-.158.106-.316a.479.479 0 0 0-.211-.42c-.105-.053-.21-.053-.316-.106h-.842v1.684h.421v-.526z"/>
    </g>
</svg>
